<svg width="568" height="277" viewBox="0 0 568 277" fill="none" xmlns="http://www.w3.org/2000/svg">
<path d="M567 253.083L567 23.9167L519.833 0.999998M567 253.083L519.833 276L331.167 184.333M567 253.083L378.333 161.417M519.833 0.999998L519.833 184.333L425.5 138.5L472.667 115.583L284 207.25L95.3333 115.583L142.5 138.5L48.1667 184.333L48.1667 0.999977M519.833 0.999998L284 115.583L48.1667 0.999977M472.667 161.417L472.667 69.75L284 161.417L95.3333 69.75L95.3333 161.417M0.999985 253.083L0.999995 23.9166L48.1667 0.999977M0.999985 253.083L48.1667 276L236.833 184.333M0.999985 253.083L189.667 161.417" stroke="white" stroke-linejoin="round"/>
</svg>
