<svg width="752" height="161" viewBox="0 0 752 161" fill="none" xmlns="http://www.w3.org/2000/svg">
<rect x="99.2756" y="89.4446" width="57.8528" height="70.8054" stroke="url(#paint0_linear_36_289)" stroke-width="1.5"/>
<rect x="514.152" y="127.043" width="57.8528" height="33.2066" stroke="url(#paint1_linear_36_289)" stroke-width="1.5"/>
<path d="M739.723 6C739.723 3.23858 737.484 1 734.723 1H682.622C679.86 1 677.622 3.23858 677.622 6V160H739.723V6Z" stroke="url(#paint2_linear_36_289)" stroke-width="2"/>
<path d="M739.723 6C739.723 3.23858 737.484 1 734.723 1H717.388V160H739.723V6Z" stroke="url(#paint3_linear_36_289)" stroke-width="2"/>
<path d="M751 46.491C751 43.7296 748.761 41.491 746 41.491H642.262C639.501 41.491 637.262 43.7296 637.262 46.491V160H751V46.491Z" stroke="url(#paint4_linear_36_289)" stroke-width="2"/>
<path d="M751 46.491C751 43.7296 748.761 41.491 746 41.491H717.388V160H751V46.491Z" stroke="url(#paint5_linear_36_289)" stroke-width="2"/>
<rect width="8.30939" height="6.7485" rx="3" transform="matrix(-1 0 0 1 709.266 45.3114)" fill="#2B2B2B" fill-opacity="0.12"/>
<rect width="8.30939" height="6.7485" rx="3" transform="matrix(-1 0 0 1 697.395 45.3114)" fill="black" fill-opacity="0.02"/>
<rect width="8.30939" height="6.7485" rx="3" transform="matrix(-1 0 0 1 685.525 45.3114)" fill="black" fill-opacity="0.02"/>
<rect width="8.30939" height="6.7485" rx="3" transform="matrix(-1 0 0 1 673.654 45.3114)" fill="black" fill-opacity="0.02"/>
<rect width="8.30939" height="6.7485" rx="3" transform="matrix(-1 0 0 1 661.784 45.3114)" fill="black" fill-opacity="0.02"/>
<rect width="8.30939" height="6.7485" rx="3" transform="matrix(-1 0 0 1 649.913 45.3114)" fill="#2B2B2B" fill-opacity="0.12"/>
<rect width="8.30939" height="6.7485" rx="3" transform="matrix(-1 0 0 1 709.266 54.9521)" fill="black" fill-opacity="0.02"/>
<rect width="8.30939" height="6.7485" rx="3" transform="matrix(-1 0 0 1 697.395 54.9521)" fill="black" fill-opacity="0.02"/>
<rect width="8.30939" height="6.7485" rx="3" transform="matrix(-1 0 0 1 685.525 54.9521)" fill="#2B2B2B" fill-opacity="0.12"/>
<rect width="8.30939" height="6.7485" rx="3" transform="matrix(-1 0 0 1 673.654 54.9521)" fill="#2B2B2B" fill-opacity="0.12"/>
<rect width="8.30939" height="6.7485" rx="3" transform="matrix(-1 0 0 1 661.784 54.9521)" fill="black" fill-opacity="0.02"/>
<rect width="8.30939" height="6.7485" rx="3" transform="matrix(-1 0 0 1 649.913 54.9521)" fill="black" fill-opacity="0.02"/>
<rect width="8.30939" height="6.7485" rx="3" transform="matrix(-1 0 0 1 709.266 64.5928)" fill="#2B2B2B" fill-opacity="0.12"/>
<rect width="8.30939" height="6.7485" rx="3" transform="matrix(-1 0 0 1 697.395 64.5928)" fill="black" fill-opacity="0.02"/>
<rect width="8.30939" height="6.7485" rx="3" transform="matrix(-1 0 0 1 685.525 64.5928)" fill="black" fill-opacity="0.02"/>
<rect width="8.30939" height="6.7485" rx="3" transform="matrix(-1 0 0 1 673.654 64.5928)" fill="black" fill-opacity="0.02"/>
<rect width="8.30939" height="6.7485" rx="3" transform="matrix(-1 0 0 1 661.784 64.5928)" fill="black" fill-opacity="0.02"/>
<rect width="8.30939" height="6.7485" rx="3" transform="matrix(-1 0 0 1 649.913 64.5928)" fill="black" fill-opacity="0.02"/>
<rect width="8.30939" height="6.7485" rx="3" transform="matrix(-1 0 0 1 709.266 74.2336)" fill="black" fill-opacity="0.02"/>
<rect width="8.30939" height="6.7485" rx="3" transform="matrix(-1 0 0 1 697.395 74.2336)" fill="black" fill-opacity="0.02"/>
<rect width="8.30939" height="6.7485" rx="3" transform="matrix(-1 0 0 1 685.525 74.2336)" fill="black" fill-opacity="0.02"/>
<rect width="8.30939" height="6.7485" rx="3" transform="matrix(-1 0 0 1 673.654 74.2336)" fill="#2B2B2B" fill-opacity="0.12"/>
<rect width="8.30939" height="6.7485" rx="3" transform="matrix(-1 0 0 1 661.784 74.2336)" fill="black" fill-opacity="0.02"/>
<rect width="8.30939" height="6.7485" rx="3" transform="matrix(-1 0 0 1 649.913 74.2336)" fill="black" fill-opacity="0.02"/>
<rect width="8.30939" height="6.7485" rx="3" transform="matrix(-1 0 0 1 709.266 83.8743)" fill="black" fill-opacity="0.02"/>
<rect width="8.30939" height="6.7485" rx="3" transform="matrix(-1 0 0 1 697.395 83.8743)" fill="black" fill-opacity="0.02"/>
<rect width="8.30939" height="6.7485" rx="3" transform="matrix(-1 0 0 1 685.525 83.8743)" fill="black" fill-opacity="0.02"/>
<rect width="8.30939" height="6.7485" rx="3" transform="matrix(-1 0 0 1 673.654 83.8743)" fill="black" fill-opacity="0.02"/>
<rect width="8.30939" height="6.7485" rx="3" transform="matrix(-1 0 0 1 661.784 83.8743)" fill="#2B2B2B" fill-opacity="0.12"/>
<rect width="8.30939" height="6.7485" rx="3" transform="matrix(-1 0 0 1 649.913 83.8743)" fill="black" fill-opacity="0.02"/>
<rect width="8.30939" height="6.7485" rx="3" transform="matrix(-1 0 0 1 709.266 93.515)" fill="black" fill-opacity="0.02"/>
<rect width="8.30939" height="6.7485" rx="3" transform="matrix(-1 0 0 1 697.395 93.515)" fill="#2B2B2B" fill-opacity="0.12"/>
<rect width="8.30939" height="6.7485" rx="3" transform="matrix(-1 0 0 1 685.525 93.515)" fill="black" fill-opacity="0.02"/>
<rect width="8.30939" height="6.7485" rx="3" transform="matrix(-1 0 0 1 673.654 93.515)" fill="black" fill-opacity="0.02"/>
<rect width="8.30939" height="6.7485" rx="3" transform="matrix(-1 0 0 1 661.784 93.515)" fill="black" fill-opacity="0.02"/>
<rect width="8.30939" height="6.7485" rx="3" transform="matrix(-1 0 0 1 649.913 93.515)" fill="black" fill-opacity="0.02"/>
<rect width="8.30939" height="6.7485" rx="3" transform="matrix(-1 0 0 1 709.266 103.156)" fill="black" fill-opacity="0.02"/>
<rect width="8.30939" height="6.7485" rx="3" transform="matrix(-1 0 0 1 697.395 103.156)" fill="#2B2B2B" fill-opacity="0.12"/>
<rect width="8.30939" height="6.7485" rx="3" transform="matrix(-1 0 0 1 685.525 103.156)" fill="black" fill-opacity="0.02"/>
<rect width="8.30939" height="6.7485" rx="3" transform="matrix(-1 0 0 1 673.654 103.156)" fill="black" fill-opacity="0.02"/>
<rect width="8.30939" height="6.7485" rx="3" transform="matrix(-1 0 0 1 661.784 103.156)" fill="black" fill-opacity="0.02"/>
<rect width="8.30939" height="6.7485" rx="3" transform="matrix(-1 0 0 1 649.913 103.156)" fill="#2B2B2B" fill-opacity="0.12"/>
<rect width="8.30939" height="6.7485" rx="3" transform="matrix(-1 0 0 1 709.266 112.796)" fill="#2B2B2B" fill-opacity="0.12"/>
<rect width="8.30939" height="6.7485" rx="3" transform="matrix(-1 0 0 1 697.395 112.796)" fill="black" fill-opacity="0.02"/>
<rect width="8.30939" height="6.7485" rx="3" transform="matrix(-1 0 0 1 685.525 112.796)" fill="black" fill-opacity="0.02"/>
<rect width="8.30939" height="6.7485" rx="3" transform="matrix(-1 0 0 1 673.654 112.796)" fill="black" fill-opacity="0.02"/>
<rect width="8.30939" height="6.7485" rx="3" transform="matrix(-1 0 0 1 661.784 112.796)" fill="black" fill-opacity="0.02"/>
<rect width="8.30939" height="6.7485" rx="3" transform="matrix(-1 0 0 1 649.913 112.796)" fill="black" fill-opacity="0.02"/>
<rect width="8.30939" height="6.7485" rx="3" transform="matrix(-1 0 0 1 709.266 122.437)" fill="black" fill-opacity="0.02"/>
<rect width="8.30939" height="6.7485" rx="3" transform="matrix(-1 0 0 1 697.395 122.437)" fill="black" fill-opacity="0.02"/>
<rect width="8.30939" height="6.7485" rx="3" transform="matrix(-1 0 0 1 685.525 122.437)" fill="black" fill-opacity="0.02"/>
<rect width="8.30939" height="6.7485" rx="3" transform="matrix(-1 0 0 1 673.654 122.437)" fill="#2B2B2B" fill-opacity="0.12"/>
<rect width="8.30939" height="6.7485" rx="3" transform="matrix(-1 0 0 1 661.784 122.437)" fill="#2B2B2B" fill-opacity="0.12"/>
<rect width="8.30939" height="6.7485" rx="3" transform="matrix(-1 0 0 1 649.913 122.437)" fill="black" fill-opacity="0.02"/>
<rect width="8.30939" height="6.7485" rx="3" transform="matrix(-1 0 0 1 709.266 132.078)" fill="black" fill-opacity="0.02"/>
<rect width="8.30939" height="6.7485" rx="3" transform="matrix(-1 0 0 1 697.395 132.078)" fill="#2B2B2B" fill-opacity="0.12"/>
<rect width="8.30939" height="6.7485" rx="3" transform="matrix(-1 0 0 1 685.525 132.078)" fill="black" fill-opacity="0.02"/>
<rect width="8.30939" height="6.7485" rx="3" transform="matrix(-1 0 0 1 673.654 132.078)" fill="black" fill-opacity="0.02"/>
<rect width="8.30939" height="6.7485" rx="3" transform="matrix(-1 0 0 1 661.784 132.078)" fill="black" fill-opacity="0.02"/>
<rect width="8.30939" height="6.7485" rx="3" transform="matrix(-1 0 0 1 649.913 132.078)" fill="black" fill-opacity="0.02"/>
<rect width="8.30939" height="6.7485" rx="3" transform="matrix(-1 0 0 1 744.877 132.078)" fill="#2B2B2B" fill-opacity="0.12"/>
<rect width="8.30939" height="6.7485" rx="3" transform="matrix(-1 0 0 1 733.007 132.078)" fill="black" fill-opacity="0.02"/>
<rect width="8.30939" height="6.7485" rx="3" transform="matrix(-1 0 0 1 744.877 122.437)" fill="black" fill-opacity="0.02"/>
<rect width="8.30939" height="6.7485" rx="3" transform="matrix(-1 0 0 1 733.007 122.437)" fill="black" fill-opacity="0.02"/>
<rect width="8.30939" height="6.7485" rx="3" transform="matrix(-1 0 0 1 744.877 112.796)" fill="#2B2B2B" fill-opacity="0.12"/>
<rect width="8.30939" height="6.7485" rx="3" transform="matrix(-1 0 0 1 733.007 112.796)" fill="black" fill-opacity="0.02"/>
<rect width="8.30939" height="6.7485" rx="3" transform="matrix(-1 0 0 1 744.877 103.156)" fill="black" fill-opacity="0.02"/>
<rect width="8.30939" height="6.7485" rx="3" transform="matrix(-1 0 0 1 733.007 103.156)" fill="#2B2B2B" fill-opacity="0.12"/>
<rect width="8.30939" height="6.7485" rx="3" transform="matrix(-1 0 0 1 744.877 93.515)" fill="black" fill-opacity="0.02"/>
<rect width="8.30939" height="6.7485" rx="3" transform="matrix(-1 0 0 1 733.007 93.515)" fill="black" fill-opacity="0.02"/>
<rect width="8.30939" height="6.7485" rx="3" transform="matrix(-1 0 0 1 744.877 83.8743)" fill="#2B2B2B" fill-opacity="0.12"/>
<rect width="8.30939" height="6.7485" rx="3" transform="matrix(-1 0 0 1 733.007 83.8743)" fill="#2B2B2B" fill-opacity="0.12"/>
<rect width="8.30939" height="6.7485" rx="3" transform="matrix(-1 0 0 1 744.877 74.2336)" fill="black" fill-opacity="0.02"/>
<rect width="8.30939" height="6.7485" rx="3" transform="matrix(-1 0 0 1 733.007 74.2336)" fill="black" fill-opacity="0.02"/>
<rect width="8.30939" height="6.7485" rx="3" transform="matrix(-1 0 0 1 744.877 64.5928)" fill="black" fill-opacity="0.02"/>
<rect width="8.30939" height="6.7485" rx="3" transform="matrix(-1 0 0 1 733.007 64.5928)" fill="black" fill-opacity="0.02"/>
<rect width="8.30939" height="6.7485" rx="3" transform="matrix(-1 0 0 1 744.877 54.9521)" fill="black" fill-opacity="0.02"/>
<rect width="8.30939" height="6.7485" rx="3" transform="matrix(-1 0 0 1 733.007 54.9521)" fill="#2B2B2B" fill-opacity="0.12"/>
<rect width="8.30939" height="6.7485" rx="3" transform="matrix(-1 0 0 1 744.877 45.3114)" fill="black" fill-opacity="0.02"/>
<rect width="8.30939" height="6.7485" rx="3" transform="matrix(-1 0 0 1 733.007 45.3114)" fill="#2B2B2B" fill-opacity="0.12"/>
<path d="M158.878 58.5419C158.878 55.7805 161.117 53.5419 163.878 53.5419H211.231C213.993 53.5419 216.231 55.7805 216.231 58.5419V160H158.878V58.5419Z" stroke="url(#paint6_linear_36_289)" stroke-width="2"/>
<path d="M136.918 58.5419C136.918 55.7805 139.156 53.5419 141.918 53.5419H194.271V160H136.918V58.5419Z" stroke="url(#paint7_linear_36_289)" stroke-width="2"/>
<path d="M133.107 59.3982C133.107 58.1556 134.114 57.1482 135.357 57.1482H194.521V66.253H135.357C134.114 66.253 133.107 65.2456 133.107 64.003V59.3982Z" stroke="url(#paint8_linear_36_289)" stroke-width="1.5"/>
<path d="M219.449 59.3982C219.449 58.1556 218.441 57.1482 217.199 57.1482H195.427V66.253H217.199C218.441 66.253 219.449 65.2456 219.449 64.003V59.3982Z" stroke="url(#paint9_linear_36_289)" stroke-width="1.5"/>
<rect x="143.634" y="73.2695" width="8.30939" height="6.7485" rx="3" fill="black" fill-opacity="0.02"/>
<rect x="155.504" y="73.2695" width="8.30939" height="6.7485" rx="3" fill="#2B2B2B" fill-opacity="0.12"/>
<rect x="167.375" y="73.2695" width="8.30939" height="6.7485" rx="3" fill="black" fill-opacity="0.02"/>
<rect x="179.245" y="73.2695" width="8.30939" height="6.7485" rx="3" fill="#2B2B2B" fill-opacity="0.12"/>
<rect x="143.634" y="83.8742" width="8.30939" height="6.7485" rx="3" fill="black" fill-opacity="0.02"/>
<rect x="155.504" y="83.8742" width="8.30939" height="6.7485" rx="3" fill="black" fill-opacity="0.02"/>
<rect x="167.375" y="83.8742" width="8.30939" height="6.7485" rx="3" fill="#2B2B2B" fill-opacity="0.12"/>
<rect x="143.634" y="94.479" width="8.30939" height="6.7485" rx="3" fill="black" fill-opacity="0.02"/>
<rect x="155.504" y="94.479" width="8.30939" height="6.7485" rx="3" fill="black" fill-opacity="0.02"/>
<rect x="167.375" y="94.479" width="8.30939" height="6.7485" rx="3" fill="black" fill-opacity="0.02"/>
<rect x="143.634" y="105.084" width="8.30939" height="6.7485" rx="3" fill="#2B2B2B" fill-opacity="0.12"/>
<rect x="155.504" y="105.084" width="8.30939" height="6.7485" rx="3" fill="#2B2B2B" fill-opacity="0.12"/>
<rect x="167.375" y="105.084" width="8.30939" height="6.7485" rx="3" fill="black" fill-opacity="0.02"/>
<rect x="143.634" y="115.689" width="8.30939" height="6.7485" rx="3" fill="black" fill-opacity="0.02"/>
<rect x="155.504" y="115.689" width="8.30939" height="6.7485" rx="3" fill="black" fill-opacity="0.02"/>
<rect x="167.375" y="115.689" width="8.30939" height="6.7485" rx="3" fill="#2B2B2B" fill-opacity="0.12"/>
<rect x="143.634" y="126.293" width="8.30939" height="6.7485" rx="3" fill="black" fill-opacity="0.02"/>
<rect x="155.504" y="126.293" width="8.30939" height="6.7485" rx="3" fill="#2B2B2B" fill-opacity="0.12"/>
<rect x="167.375" y="126.293" width="8.30939" height="6.7485" rx="3" fill="black" fill-opacity="0.02"/>
<path d="M299.295 55.1677C299.295 52.2682 301.645 49.9177 304.545 49.9177H449.236C452.136 49.9177 454.486 52.2682 454.486 55.1677V160.25H299.295V55.1677Z" stroke="url(#paint10_linear_36_289)" stroke-width="1.5"/>
<path d="M333.126 43.5988C333.126 40.6993 335.476 38.3488 338.376 38.3488H415.405C418.304 38.3488 420.655 40.6993 420.655 43.5988V48.4176H333.126V43.5988Z" stroke="url(#paint11_linear_36_289)" stroke-width="1.5"/>
<path d="M299.295 55.1677C299.295 52.2682 301.645 49.9177 304.545 49.9177H350.025V160.25H299.295V55.1677Z" stroke="url(#paint12_linear_36_289)" stroke-width="1.5"/>
<path d="M403.755 49.9177H449.236C452.135 49.9177 454.486 52.2682 454.486 55.1677V160.25H403.755V49.9177Z" stroke="url(#paint13_linear_36_289)" stroke-width="1.5"/>
<path d="M239.005 108.494H312.131C314.892 108.494 317.131 110.733 317.131 113.494V160H239.005V108.494Z" stroke="url(#paint14_linear_36_289)" stroke-width="2"/>
<path d="M170.749 86.982C170.749 84.2206 172.988 81.982 175.749 81.982H235.522C236.847 81.982 238.117 82.5079 239.055 83.4441L315.714 160H170.749V86.982Z" stroke="url(#paint15_linear_36_289)" stroke-width="2"/>
<path d="M249.875 113.494C249.875 110.18 252.562 107.494 255.875 107.494H262.129C263.723 107.494 265.251 108.128 266.377 109.257L281.926 124.847H249.875V113.494Z" fill="black" fill-opacity="0.02"/>
<rect x="213.077" y="107.494" width="33.2376" height="17.3533" rx="3" fill="black" fill-opacity="0.02"/>
<rect x="176.278" y="107.494" width="33.2376" height="17.3533" rx="3" fill="#2B2B2B" fill-opacity="0.12"/>
<path d="M164.814 141.272H295.148C296.484 141.272 297.765 141.808 298.705 142.759L315.737 160H164.814V141.272Z" stroke="url(#paint16_linear_36_289)" stroke-width="2"/>
<path d="M585.625 58.5419C585.625 55.7805 587.864 53.5419 590.625 53.5419H601.179C603.94 53.5419 606.179 55.7805 606.179 58.5419V63.5928H585.625V58.5419Z" stroke="url(#paint17_linear_36_289)" stroke-width="2"/>
<path d="M635.262 137.178C635.262 135.266 634.171 133.521 632.452 132.684L559.578 97.1723C556.256 95.5539 552.387 97.9725 552.387 101.667V160H635.262V137.178Z" stroke="url(#paint18_linear_36_289)" stroke-width="2"/>
<path d="M563.071 94.6946C563.071 91.9332 565.309 89.6946 568.071 89.6946H623.733C626.495 89.6946 628.733 91.9332 628.733 94.6946V135.898H563.071V94.6946Z" stroke="url(#paint19_linear_36_289)" stroke-width="2"/>
<path d="M573.754 70.5928C573.754 67.8314 575.993 65.5928 578.754 65.5928H613.05C615.811 65.5928 618.05 67.8314 618.05 70.5928V87.6946H573.754V70.5928Z" stroke="url(#paint20_linear_36_289)" stroke-width="2"/>
<path d="M552.387 135.829C552.387 133.916 553.478 132.171 555.197 131.334L632.226 93.798C635.548 92.1796 639.417 94.5982 639.417 98.2928V160H552.387V135.829Z" stroke="url(#paint21_linear_36_289)" stroke-width="2"/>
<path d="M584.031 126.534L607.179 115.93V161H584.031V126.534Z" fill="black" fill-opacity="0.02"/>
<path d="M441.398 70.5928C441.398 67.8314 443.636 65.5928 446.398 65.5928H523.427C526.188 65.5928 528.427 67.8314 528.427 70.5928V160H441.398V70.5928Z" stroke="url(#paint22_linear_36_289)" stroke-width="2"/>
<path d="M456.236 65.5928H523.427C526.188 65.5928 528.427 67.8314 528.427 70.5928V160H456.236V65.5928Z" stroke="url(#paint23_linear_36_289)" stroke-width="2"/>
<rect x="438.18" y="71.1273" width="93.4645" height="9.10479" rx="2.25" stroke="url(#paint24_linear_36_289)" stroke-width="1.5"/>
<path d="M438.18 73.3773C438.18 72.1346 439.188 71.1273 440.43 71.1273H455.08V80.232H440.43C439.188 80.232 438.18 79.2247 438.18 77.982V73.3773Z" stroke="url(#paint25_linear_36_289)" stroke-width="1.5"/>
<rect x="462.358" y="85.8024" width="8.30939" height="6.7485" rx="3" fill="#2B2B2B" fill-opacity="0.12"/>
<rect x="475.416" y="85.8024" width="8.30939" height="6.7485" rx="3" fill="black" fill-opacity="0.02"/>
<rect x="488.474" y="85.8024" width="8.30939" height="6.7485" rx="3" fill="#2B2B2B" fill-opacity="0.12"/>
<rect x="501.531" y="85.8024" width="8.30939" height="6.7485" rx="3" fill="black" fill-opacity="0.02"/>
<rect x="514.589" y="85.8024" width="8.30939" height="6.7485" rx="3" fill="black" fill-opacity="0.02"/>
<rect x="462.358" y="96.4072" width="8.30939" height="6.7485" rx="3" fill="black" fill-opacity="0.02"/>
<rect x="475.416" y="96.4072" width="8.30939" height="6.7485" rx="3" fill="black" fill-opacity="0.02"/>
<rect x="488.474" y="96.4072" width="8.30939" height="6.7485" rx="3" fill="black" fill-opacity="0.02"/>
<rect x="501.531" y="96.4072" width="8.30939" height="6.7485" rx="3" fill="black" fill-opacity="0.02"/>
<rect x="514.589" y="96.4072" width="8.30939" height="6.7485" rx="3" fill="#2B2B2B" fill-opacity="0.12"/>
<rect x="462.358" y="107.012" width="8.30939" height="6.7485" rx="3" fill="black" fill-opacity="0.02"/>
<rect x="475.416" y="107.012" width="8.30939" height="6.7485" rx="3" fill="#2B2B2B" fill-opacity="0.12"/>
<rect x="488.474" y="107.012" width="8.30939" height="6.7485" rx="3" fill="#2B2B2B" fill-opacity="0.12"/>
<rect x="501.531" y="107.012" width="8.30939" height="6.7485" rx="3" fill="black" fill-opacity="0.02"/>
<rect x="514.589" y="107.012" width="8.30939" height="6.7485" rx="3" fill="black" fill-opacity="0.02"/>
<rect x="462.358" y="117.617" width="8.30939" height="6.7485" rx="3" fill="black" fill-opacity="0.02"/>
<rect x="475.416" y="117.617" width="8.30939" height="6.7485" rx="3" fill="black" fill-opacity="0.02"/>
<rect x="488.474" y="117.617" width="8.30939" height="6.7485" rx="3" fill="black" fill-opacity="0.02"/>
<rect x="501.531" y="117.617" width="8.30939" height="6.7485" rx="3" fill="black" fill-opacity="0.02"/>
<rect x="514.589" y="117.617" width="8.30939" height="6.7485" rx="3" fill="black" fill-opacity="0.02"/>
<rect x="462.358" y="128.221" width="8.30939" height="6.7485" rx="3" fill="#2B2B2B" fill-opacity="0.12"/>
<rect x="475.416" y="128.221" width="8.30939" height="6.7485" rx="3" fill="black" fill-opacity="0.02"/>
<rect x="488.474" y="128.221" width="8.30939" height="6.7485" rx="3" fill="black" fill-opacity="0.02"/>
<rect x="501.531" y="128.221" width="8.30939" height="6.7485" rx="3" fill="#2B2B2B" fill-opacity="0.12"/>
<rect x="514.589" y="128.221" width="8.30939" height="6.7485" rx="3" fill="black" fill-opacity="0.02"/>
<rect x="462.358" y="138.826" width="8.30939" height="6.7485" rx="3" fill="black" fill-opacity="0.02"/>
<rect x="475.416" y="138.826" width="8.30939" height="6.7485" rx="3" fill="black" fill-opacity="0.02"/>
<rect x="488.474" y="138.826" width="8.30939" height="6.7485" rx="3" fill="#2B2B2B" fill-opacity="0.12"/>
<rect x="501.531" y="138.826" width="8.30939" height="6.7485" rx="3" fill="black" fill-opacity="0.02"/>
<rect x="514.589" y="138.826" width="8.30939" height="6.7485" rx="3" fill="black" fill-opacity="0.02"/>
<path d="M363.052 126.509C363.052 123.748 365.291 121.509 368.052 121.509H453.391C456.152 121.509 458.391 123.748 458.391 126.509V160H363.052V126.509Z" stroke="url(#paint26_linear_36_289)" stroke-width="2"/>
<path d="M363.052 126.509C363.052 123.748 365.291 121.509 368.052 121.509H430.495V160H363.052V126.509Z" stroke="url(#paint27_linear_36_289)" stroke-width="2"/>
<path d="M381.451 107.228C381.451 104.466 383.69 102.228 386.451 102.228H404.569C405.017 102.228 405.464 102.288 405.896 102.407L439.398 111.63V119.509H381.451V107.228Z" stroke="url(#paint28_linear_36_289)" stroke-width="2"/>
<path d="M381.451 107.228C381.451 104.466 383.69 102.228 386.451 102.228H404.38V119.509H381.451V107.228Z" stroke="url(#paint29_linear_36_289)" stroke-width="2"/>
<rect x="366.8" y="126.293" width="8.30939" height="6.7485" rx="3" fill="#2B2B2B" fill-opacity="0.12"/>
<rect x="379.858" y="126.293" width="8.30939" height="6.7485" rx="3" fill="black" fill-opacity="0.02"/>
<rect x="392.916" y="126.293" width="8.30939" height="6.7485" rx="3" fill="#2B2B2B" fill-opacity="0.12"/>
<rect x="405.973" y="126.293" width="8.30939" height="6.7485" rx="3" fill="#2B2B2B" fill-opacity="0.12"/>
<rect x="419.031" y="126.293" width="8.30939" height="6.7485" rx="3" fill="black" fill-opacity="0.02"/>
<rect x="366.8" y="137.38" width="8.30939" height="6.7485" rx="3" fill="black" fill-opacity="0.02"/>
<rect x="379.858" y="137.38" width="8.30939" height="6.7485" rx="3" fill="black" fill-opacity="0.02"/>
<rect x="392.916" y="137.38" width="8.30939" height="6.7485" rx="3" fill="#2B2B2B" fill-opacity="0.12"/>
<rect x="405.973" y="137.38" width="8.30939" height="6.7485" rx="3" fill="black" fill-opacity="0.02"/>
<rect x="419.031" y="137.38" width="8.30939" height="6.7485" rx="3" fill="black" fill-opacity="0.02"/>
<rect x="366.8" y="148.467" width="8.30939" height="6.7485" rx="3" fill="#2B2B2B" fill-opacity="0.12"/>
<rect x="379.858" y="148.467" width="8.30939" height="6.7485" rx="3" fill="black" fill-opacity="0.02"/>
<rect x="392.916" y="148.467" width="8.30939" height="6.7485" rx="3" fill="black" fill-opacity="0.02"/>
<rect x="405.973" y="148.467" width="8.30939" height="6.7485" rx="3" fill="#2B2B2B" fill-opacity="0.12"/>
<rect x="419.031" y="148.467" width="8.30939" height="6.7485" rx="3" fill="black" fill-opacity="0.02"/>
<path d="M12.277 6C12.277 3.23858 14.5156 1 17.277 1H69.378C72.1394 1 74.378 3.23858 74.378 6V160H12.277V6Z" stroke="url(#paint30_linear_36_289)" stroke-width="2"/>
<path d="M12.277 6C12.277 3.23858 14.5156 1 17.277 1H34.6116V160H12.277V6Z" stroke="url(#paint31_linear_36_289)" stroke-width="2"/>
<path d="M1 46.491C1 43.7296 3.23857 41.491 6 41.491H109.738C112.499 41.491 114.738 43.7296 114.738 46.491V160H1V46.491Z" stroke="url(#paint32_linear_36_289)" stroke-width="2"/>
<path d="M1 46.491C1 43.7296 3.23857 41.491 6 41.491H34.6117V160H1V46.491Z" stroke="url(#paint33_linear_36_289)" stroke-width="2"/>
<rect x="43.3275" y="44.8293" width="8.30939" height="6.7485" rx="3" fill="#2B2B2B" fill-opacity="0.12"/>
<rect x="55.198" y="44.8293" width="8.30939" height="6.7485" rx="3" fill="black" fill-opacity="0.02"/>
<rect x="67.0687" y="44.8293" width="8.30939" height="6.7485" rx="3" fill="black" fill-opacity="0.02"/>
<rect x="78.9392" y="44.8293" width="8.30939" height="6.7485" rx="3" fill="#2B2B2B" fill-opacity="0.12"/>
<rect x="90.8098" y="44.8293" width="8.30939" height="6.7485" rx="3" fill="#2B2B2B" fill-opacity="0.12"/>
<rect x="102.68" y="44.8293" width="8.30939" height="6.7485" rx="3" fill="black" fill-opacity="0.02"/>
<rect x="43.3275" y="54.4701" width="8.30939" height="6.7485" rx="3" fill="#2B2B2B" fill-opacity="0.12"/>
<rect x="55.198" y="54.4701" width="8.30939" height="6.7485" rx="3" fill="black" fill-opacity="0.02"/>
<rect x="67.0687" y="54.4701" width="8.30939" height="6.7485" rx="3" fill="black" fill-opacity="0.02"/>
<rect x="78.9392" y="54.4701" width="8.30939" height="6.7485" rx="3" fill="black" fill-opacity="0.02"/>
<rect x="90.8098" y="54.4701" width="8.30939" height="6.7485" rx="3" fill="black" fill-opacity="0.02"/>
<rect x="102.68" y="54.4701" width="8.30939" height="6.7485" rx="3" fill="#2B2B2B" fill-opacity="0.12"/>
<rect x="43.3275" y="64.1108" width="8.30939" height="6.7485" rx="3" fill="black" fill-opacity="0.02"/>
<rect x="55.198" y="64.1108" width="8.30939" height="6.7485" rx="3" fill="black" fill-opacity="0.02"/>
<rect x="67.0687" y="64.1108" width="8.30939" height="6.7485" rx="3" fill="black" fill-opacity="0.02"/>
<rect x="78.9392" y="64.1108" width="8.30939" height="6.7485" rx="3" fill="#2B2B2B" fill-opacity="0.12"/>
<rect x="90.8098" y="64.1108" width="8.30939" height="6.7485" rx="3" fill="black" fill-opacity="0.02"/>
<rect x="102.68" y="64.1108" width="8.30939" height="6.7485" rx="3" fill="black" fill-opacity="0.02"/>
<rect x="43.3275" y="73.7515" width="8.30939" height="6.7485" rx="3" fill="black" fill-opacity="0.02"/>
<rect x="55.198" y="73.7515" width="8.30939" height="6.7485" rx="3" fill="black" fill-opacity="0.02"/>
<rect x="67.0687" y="73.7515" width="8.30939" height="6.7485" rx="3" fill="black" fill-opacity="0.02"/>
<rect x="78.9392" y="73.7515" width="8.30939" height="6.7485" rx="3" fill="#2B2B2B" fill-opacity="0.12"/>
<rect x="90.8098" y="73.7515" width="8.30939" height="6.7485" rx="3" fill="black" fill-opacity="0.02"/>
<rect x="102.68" y="73.7515" width="8.30939" height="6.7485" rx="3" fill="black" fill-opacity="0.02"/>
<rect x="43.3275" y="83.3922" width="8.30939" height="6.7485" rx="3" fill="#2B2B2B" fill-opacity="0.12"/>
<rect x="55.198" y="83.3922" width="8.30939" height="6.7485" rx="3" fill="black" fill-opacity="0.02"/>
<rect x="67.0687" y="83.3922" width="8.30939" height="6.7485" rx="3" fill="black" fill-opacity="0.02"/>
<rect x="78.9392" y="83.3922" width="8.30939" height="6.7485" rx="3" fill="black" fill-opacity="0.02"/>
<rect x="90.8098" y="83.3922" width="8.30939" height="6.7485" rx="3" fill="black" fill-opacity="0.02"/>
<rect x="102.68" y="83.3922" width="8.30939" height="6.7485" rx="3" fill="black" fill-opacity="0.02"/>
<rect x="43.3275" y="93.0329" width="8.30939" height="6.7485" rx="3" fill="black" fill-opacity="0.02"/>
<rect x="55.198" y="93.0329" width="8.30939" height="6.7485" rx="3" fill="#2B2B2B" fill-opacity="0.12"/>
<rect x="67.0687" y="93.0329" width="8.30939" height="6.7485" rx="3" fill="#2B2B2B" fill-opacity="0.12"/>
<rect x="78.9392" y="93.0329" width="8.30939" height="6.7485" rx="3" fill="black" fill-opacity="0.02"/>
<rect x="90.8098" y="93.0329" width="8.30939" height="6.7485" rx="3" fill="black" fill-opacity="0.02"/>
<rect x="102.68" y="93.0329" width="8.30939" height="6.7485" rx="3" fill="black" fill-opacity="0.02"/>
<rect x="43.3275" y="102.674" width="8.30939" height="6.7485" rx="3" fill="black" fill-opacity="0.02"/>
<rect x="55.198" y="102.674" width="8.30939" height="6.7485" rx="3" fill="black" fill-opacity="0.02"/>
<rect x="67.0687" y="102.674" width="8.30939" height="6.7485" rx="3" fill="black" fill-opacity="0.02"/>
<rect x="78.9392" y="102.674" width="8.30939" height="6.7485" rx="3" fill="black" fill-opacity="0.02"/>
<rect x="90.8098" y="102.674" width="8.30939" height="6.7485" rx="3" fill="black" fill-opacity="0.02"/>
<rect x="102.68" y="102.674" width="8.30939" height="6.7485" rx="3" fill="#2B2B2B" fill-opacity="0.12"/>
<rect x="43.3275" y="112.314" width="8.30939" height="6.7485" rx="3" fill="black" fill-opacity="0.02"/>
<rect x="55.198" y="112.314" width="8.30939" height="6.7485" rx="3" fill="black" fill-opacity="0.02"/>
<rect x="67.0687" y="112.314" width="8.30939" height="6.7485" rx="3" fill="black" fill-opacity="0.02"/>
<rect x="78.9392" y="112.314" width="8.30939" height="6.7485" rx="3" fill="black" fill-opacity="0.02"/>
<rect x="90.8098" y="112.314" width="8.30939" height="6.7485" rx="3" fill="#2B2B2B" fill-opacity="0.12"/>
<rect x="102.68" y="112.314" width="8.30939" height="6.7485" rx="3" fill="black" fill-opacity="0.02"/>
<rect x="43.3275" y="121.955" width="8.30939" height="6.7485" rx="3" fill="#2B2B2B" fill-opacity="0.12"/>
<rect x="55.198" y="121.955" width="8.30939" height="6.7485" rx="3" fill="black" fill-opacity="0.02"/>
<rect x="67.0687" y="121.955" width="8.30939" height="6.7485" rx="3" fill="#2B2B2B" fill-opacity="0.12"/>
<rect x="78.9392" y="121.955" width="8.30939" height="6.7485" rx="3" fill="black" fill-opacity="0.02"/>
<rect x="90.8098" y="121.955" width="8.30939" height="6.7485" rx="3" fill="black" fill-opacity="0.02"/>
<rect x="102.68" y="121.955" width="8.30939" height="6.7485" rx="3" fill="black" fill-opacity="0.02"/>
<rect x="7.71582" y="121.955" width="8.30939" height="6.7485" rx="3" fill="#2B2B2B" fill-opacity="0.12"/>
<rect x="19.5864" y="121.955" width="8.30939" height="6.7485" rx="3" fill="#2B2B2B" fill-opacity="0.12"/>
<rect x="7.71582" y="112.314" width="8.30939" height="6.7485" rx="3" fill="black" fill-opacity="0.02"/>
<rect x="19.5864" y="112.314" width="8.30939" height="6.7485" rx="3" fill="black" fill-opacity="0.02"/>
<rect x="7.71582" y="102.674" width="8.30939" height="6.7485" rx="3" fill="black" fill-opacity="0.02"/>
<rect x="19.5864" y="102.674" width="8.30939" height="6.7485" rx="3" fill="#2B2B2B" fill-opacity="0.12"/>
<rect x="7.71582" y="93.0329" width="8.30939" height="6.7485" rx="3" fill="black" fill-opacity="0.02"/>
<rect x="19.5864" y="93.0329" width="8.30939" height="6.7485" rx="3" fill="black" fill-opacity="0.02"/>
<rect x="7.71582" y="83.3922" width="8.30939" height="6.7485" rx="3" fill="black" fill-opacity="0.02"/>
<rect x="19.5864" y="83.3922" width="8.30939" height="6.7485" rx="3" fill="black" fill-opacity="0.02"/>
<rect x="7.71582" y="73.7515" width="8.30939" height="6.7485" rx="3" fill="#2B2B2B" fill-opacity="0.12"/>
<rect x="19.5864" y="73.7515" width="8.30939" height="6.7485" rx="3" fill="#2B2B2B" fill-opacity="0.12"/>
<rect x="7.71582" y="64.1108" width="8.30939" height="6.7485" rx="3" fill="black" fill-opacity="0.02"/>
<rect x="19.5864" y="64.1108" width="8.30939" height="6.7485" rx="3" fill="black" fill-opacity="0.02"/>
<rect x="7.71582" y="54.4701" width="8.30939" height="6.7485" rx="3" fill="black" fill-opacity="0.02"/>
<rect x="19.5864" y="54.4701" width="8.30939" height="6.7485" rx="3" fill="black" fill-opacity="0.02"/>
<rect x="7.71582" y="44.8293" width="8.30939" height="6.7485" rx="3" fill="#2B2B2B" fill-opacity="0.12"/>
<rect x="19.5864" y="44.8293" width="8.30939" height="6.7485" rx="3" fill="black" fill-opacity="0.02"/>
<defs>
<linearGradient id="paint0_linear_36_289" x1="128.202" y1="88.6946" x2="128.202" y2="161" gradientUnits="userSpaceOnUse">
<stop stop-opacity="0.12"/>
<stop offset="1" stop-color="#BDA44C" stop-opacity="0"/>
<stop offset="1" stop-color="#BDA44C" stop-opacity="0"/>
</linearGradient>
<linearGradient id="paint1_linear_36_289" x1="543.078" y1="126.293" x2="543.078" y2="161" gradientUnits="userSpaceOnUse">
<stop stop-opacity="0.12"/>
<stop offset="1" stop-color="#BDA44C" stop-opacity="0"/>
<stop offset="1" stop-color="#BDA44C" stop-opacity="0"/>
</linearGradient>
<linearGradient id="paint2_linear_36_289" x1="708.672" y1="0" x2="708.672" y2="161" gradientUnits="userSpaceOnUse">
<stop stop-opacity="0.12"/>
<stop offset="1" stop-color="#BDA44C" stop-opacity="0"/>
<stop offset="1" stop-color="#BDA44C" stop-opacity="0"/>
</linearGradient>
<linearGradient id="paint3_linear_36_289" x1="728.556" y1="0" x2="728.556" y2="161" gradientUnits="userSpaceOnUse">
<stop stop-opacity="0.12"/>
<stop offset="1" stop-color="#BDA44C" stop-opacity="0"/>
<stop offset="1" stop-color="#BDA44C" stop-opacity="0"/>
</linearGradient>
<linearGradient id="paint4_linear_36_289" x1="694.131" y1="40.491" x2="694.131" y2="161" gradientUnits="userSpaceOnUse">
<stop stop-opacity="0.12"/>
<stop offset="1" stop-color="#BDA44C" stop-opacity="0"/>
<stop offset="1" stop-color="#BDA44C" stop-opacity="0"/>
</linearGradient>
<linearGradient id="paint5_linear_36_289" x1="734.194" y1="40.491" x2="734.194" y2="161" gradientUnits="userSpaceOnUse">
<stop stop-opacity="0.12"/>
<stop offset="1" stop-color="#BDA44C" stop-opacity="0"/>
<stop offset="1" stop-color="#BDA44C" stop-opacity="0"/>
</linearGradient>
<linearGradient id="paint6_linear_36_289" x1="187.555" y1="52.5419" x2="187.555" y2="161" gradientUnits="userSpaceOnUse">
<stop stop-opacity="0.12"/>
<stop offset="1" stop-color="#BDA44C" stop-opacity="0"/>
<stop offset="1" stop-color="#BDA44C" stop-opacity="0"/>
</linearGradient>
<linearGradient id="paint7_linear_36_289" x1="165.594" y1="52.5419" x2="165.594" y2="161" gradientUnits="userSpaceOnUse">
<stop stop-opacity="0.12"/>
<stop offset="1" stop-color="#BDA44C" stop-opacity="0"/>
<stop offset="1" stop-color="#BDA44C" stop-opacity="0"/>
</linearGradient>
<linearGradient id="paint8_linear_36_289" x1="163.814" y1="56.3982" x2="163.814" y2="67.003" gradientUnits="userSpaceOnUse">
<stop stop-opacity="0.12"/>
<stop offset="1" stop-color="#BDA44C" stop-opacity="0"/>
<stop offset="1" stop-color="#BDA44C" stop-opacity="0"/>
</linearGradient>
<linearGradient id="paint9_linear_36_289" x1="207.438" y1="56.3982" x2="207.438" y2="67.003" gradientUnits="userSpaceOnUse">
<stop stop-opacity="0.12"/>
<stop offset="1" stop-color="#BDA44C" stop-opacity="0"/>
<stop offset="1" stop-color="#BDA44C" stop-opacity="0"/>
</linearGradient>
<linearGradient id="paint10_linear_36_289" x1="376.89" y1="49.1677" x2="376.89" y2="161" gradientUnits="userSpaceOnUse">
<stop stop-opacity="0.12"/>
<stop offset="1" stop-color="#BDA44C" stop-opacity="0"/>
<stop offset="1" stop-color="#BDA44C" stop-opacity="0"/>
</linearGradient>
<linearGradient id="paint11_linear_36_289" x1="376.89" y1="37.5988" x2="376.89" y2="49.1676" gradientUnits="userSpaceOnUse">
<stop stop-opacity="0.12"/>
<stop offset="1" stop-color="#BDA44C" stop-opacity="0"/>
<stop offset="1" stop-color="#BDA44C" stop-opacity="0"/>
</linearGradient>
<linearGradient id="paint12_linear_36_289" x1="324.66" y1="49.1677" x2="324.66" y2="161" gradientUnits="userSpaceOnUse">
<stop stop-opacity="0.12"/>
<stop offset="1" stop-color="#BDA44C" stop-opacity="0"/>
<stop offset="1" stop-color="#BDA44C" stop-opacity="0"/>
</linearGradient>
<linearGradient id="paint13_linear_36_289" x1="429.121" y1="49.1677" x2="429.121" y2="161" gradientUnits="userSpaceOnUse">
<stop stop-opacity="0.12"/>
<stop offset="1" stop-color="#BDA44C" stop-opacity="0"/>
<stop offset="1" stop-color="#BDA44C" stop-opacity="0"/>
</linearGradient>
<linearGradient id="paint14_linear_36_289" x1="278.068" y1="107.494" x2="278.068" y2="161" gradientUnits="userSpaceOnUse">
<stop stop-opacity="0.12"/>
<stop offset="1" stop-color="#BDA44C" stop-opacity="0"/>
<stop offset="1" stop-color="#BDA44C" stop-opacity="0"/>
</linearGradient>
<linearGradient id="paint15_linear_36_289" x1="243.94" y1="80.982" x2="243.94" y2="161" gradientUnits="userSpaceOnUse">
<stop stop-opacity="0.12"/>
<stop offset="1" stop-color="#BDA44C" stop-opacity="0"/>
<stop offset="1" stop-color="#BDA44C" stop-opacity="0"/>
</linearGradient>
<linearGradient id="paint16_linear_36_289" x1="240.972" y1="140.272" x2="240.972" y2="161" gradientUnits="userSpaceOnUse">
<stop stop-opacity="0.12"/>
<stop offset="1" stop-color="#BDA44C" stop-opacity="0"/>
<stop offset="1" stop-color="#BDA44C" stop-opacity="0"/>
</linearGradient>
<linearGradient id="paint17_linear_36_289" x1="595.902" y1="52.5419" x2="595.902" y2="64.5928" gradientUnits="userSpaceOnUse">
<stop stop-opacity="0.12"/>
<stop offset="1" stop-color="#BDA44C" stop-opacity="0"/>
<stop offset="1" stop-color="#BDA44C" stop-opacity="0"/>
</linearGradient>
<linearGradient id="paint18_linear_36_289" x1="593.825" y1="92.0689" x2="593.825" y2="161" gradientUnits="userSpaceOnUse">
<stop stop-opacity="0.12"/>
<stop offset="1" stop-color="#BDA44C" stop-opacity="0"/>
<stop offset="1" stop-color="#BDA44C" stop-opacity="0"/>
</linearGradient>
<linearGradient id="paint19_linear_36_289" x1="595.902" y1="88.6946" x2="595.902" y2="136.898" gradientUnits="userSpaceOnUse">
<stop stop-opacity="0.12"/>
<stop offset="1" stop-color="#BDA44C" stop-opacity="0"/>
<stop offset="1" stop-color="#BDA44C" stop-opacity="0"/>
</linearGradient>
<linearGradient id="paint20_linear_36_289" x1="595.902" y1="64.5928" x2="595.902" y2="88.6946" gradientUnits="userSpaceOnUse">
<stop stop-opacity="0.12"/>
<stop offset="1" stop-color="#BDA44C" stop-opacity="0"/>
<stop offset="1" stop-color="#BDA44C" stop-opacity="0"/>
</linearGradient>
<linearGradient id="paint21_linear_36_289" x1="595.902" y1="88.6946" x2="595.902" y2="161" gradientUnits="userSpaceOnUse">
<stop stop-opacity="0.12"/>
<stop offset="1" stop-color="#BDA44C" stop-opacity="0"/>
<stop offset="1" stop-color="#BDA44C" stop-opacity="0"/>
</linearGradient>
<linearGradient id="paint22_linear_36_289" x1="484.912" y1="64.5928" x2="484.912" y2="161" gradientUnits="userSpaceOnUse">
<stop stop-opacity="0.12"/>
<stop offset="1" stop-color="#BDA44C" stop-opacity="0"/>
<stop offset="1" stop-color="#BDA44C" stop-opacity="0"/>
</linearGradient>
<linearGradient id="paint23_linear_36_289" x1="492.331" y1="64.5928" x2="492.331" y2="161" gradientUnits="userSpaceOnUse">
<stop stop-opacity="0.12"/>
<stop offset="1" stop-color="#BDA44C" stop-opacity="0"/>
<stop offset="1" stop-color="#BDA44C" stop-opacity="0"/>
</linearGradient>
<linearGradient id="paint24_linear_36_289" x1="484.912" y1="70.3773" x2="484.912" y2="80.982" gradientUnits="userSpaceOnUse">
<stop stop-opacity="0.12"/>
<stop offset="1" stop-color="#BDA44C" stop-opacity="0"/>
<stop offset="1" stop-color="#BDA44C" stop-opacity="0"/>
</linearGradient>
<linearGradient id="paint25_linear_36_289" x1="446.63" y1="70.3773" x2="446.63" y2="80.982" gradientUnits="userSpaceOnUse">
<stop stop-opacity="0.12"/>
<stop offset="1" stop-color="#BDA44C" stop-opacity="0"/>
<stop offset="1" stop-color="#BDA44C" stop-opacity="0"/>
</linearGradient>
<linearGradient id="paint26_linear_36_289" x1="410.721" y1="120.509" x2="410.721" y2="161" gradientUnits="userSpaceOnUse">
<stop stop-opacity="0.12"/>
<stop offset="1" stop-color="#BDA44C" stop-opacity="0"/>
<stop offset="1" stop-color="#BDA44C" stop-opacity="0"/>
</linearGradient>
<linearGradient id="paint27_linear_36_289" x1="396.774" y1="120.509" x2="396.774" y2="161" gradientUnits="userSpaceOnUse">
<stop stop-opacity="0.12"/>
<stop offset="1" stop-color="#BDA44C" stop-opacity="0"/>
<stop offset="1" stop-color="#BDA44C" stop-opacity="0"/>
</linearGradient>
<linearGradient id="paint28_linear_36_289" x1="410.425" y1="101.228" x2="410.425" y2="120.509" gradientUnits="userSpaceOnUse">
<stop stop-opacity="0.12"/>
<stop offset="1" stop-color="#BDA44C" stop-opacity="0"/>
<stop offset="1" stop-color="#BDA44C" stop-opacity="0"/>
</linearGradient>
<linearGradient id="paint29_linear_36_289" x1="392.916" y1="101.228" x2="392.916" y2="120.509" gradientUnits="userSpaceOnUse">
<stop stop-opacity="0.12"/>
<stop offset="1" stop-color="#BDA44C" stop-opacity="0"/>
<stop offset="1" stop-color="#BDA44C" stop-opacity="0"/>
</linearGradient>
<linearGradient id="paint30_linear_36_289" x1="43.3275" y1="0" x2="43.3275" y2="161" gradientUnits="userSpaceOnUse">
<stop stop-opacity="0.12"/>
<stop offset="1" stop-color="#BDA44C" stop-opacity="0"/>
<stop offset="1" stop-color="#BDA44C" stop-opacity="0"/>
</linearGradient>
<linearGradient id="paint31_linear_36_289" x1="23.4443" y1="0" x2="23.4443" y2="161" gradientUnits="userSpaceOnUse">
<stop stop-opacity="0.12"/>
<stop offset="1" stop-color="#BDA44C" stop-opacity="0"/>
<stop offset="1" stop-color="#BDA44C" stop-opacity="0"/>
</linearGradient>
<linearGradient id="paint32_linear_36_289" x1="57.869" y1="40.491" x2="57.869" y2="161" gradientUnits="userSpaceOnUse">
<stop stop-opacity="0.12"/>
<stop offset="1" stop-color="#BDA44C" stop-opacity="0"/>
<stop offset="1" stop-color="#BDA44C" stop-opacity="0"/>
</linearGradient>
<linearGradient id="paint33_linear_36_289" x1="17.8058" y1="40.491" x2="17.8058" y2="161" gradientUnits="userSpaceOnUse">
<stop stop-opacity="0.12"/>
<stop offset="1" stop-color="#BDA44C" stop-opacity="0"/>
<stop offset="1" stop-color="#BDA44C" stop-opacity="0"/>
</linearGradient>
</defs>
</svg>
