<svg width="35" height="18" viewBox="0 0 35 18" fill="none" xmlns="http://www.w3.org/2000/svg">
<path d="M34 15.6667L34 2.33333L31.25 1M34 15.6667L31.25 17L20.25 11.6667M34 15.6667L23 10.3333M31.25 1L31.25 11.6667L25.75 9L28.5 7.66667L17.5 13L6.5 7.66667L9.25 9L3.75 11.6667L3.75 0.999999M31.25 1L17.5 7.66667L3.75 0.999999M28.5 10.3333L28.5 5L17.5 10.3333L6.5 5L6.5 10.3333M0.999999 15.6667L0.999999 2.33333L3.75 0.999999M0.999999 15.6667L3.75 17L14.75 11.6667M0.999999 15.6667L12 10.3333" stroke="white" stroke-linejoin="round"/>
</svg>
